<?xml version="1.0" encoding="UTF-8"?>
<svg width="352px" height="58px" viewBox="0 0 352 58" version="1.1" xmlns="http://www.w3.org/2000/svg" xmlns:xlink="http://www.w3.org/1999/xlink">
    <!-- Generator: Sketch 45.1 (43504) - http://www.bohemiancoding.com/sketch -->
    <title>Group 3 Copy</title>
    <desc>Created with Sketch.</desc>
    <defs></defs>
    <g id="Page-1" stroke="none" stroke-width="1" fill="none" fill-rule="evenodd">
        <g id="Group-3-Copy" transform="translate(0.000000, -2.000000)" fill="#1C5CB2">
            <path d="M89.1582031,50.6591797 C86.3749861,50.6591797 83.9295353,50.3906277 81.8217773,49.8535156 C79.7140194,49.3164036 77.756845,48.6490925 75.9501953,47.8515625 L75.9501953,39.2089844 L76.7802734,39.2089844 C78.6031992,40.7552161 80.6132703,41.9433552 82.8105469,42.7734375 C85.0078235,43.6035198 87.1399636,44.0185547 89.2070312,44.0185547 C89.7278672,44.0185547 90.4155231,43.9615891 91.2700195,43.8476562 C92.124516,43.7337234 92.8121719,43.5546887 93.3330078,43.3105469 C93.9677766,43.0338528 94.5048806,42.6473007 94.9443359,42.1508789 C95.3837913,41.6544572 95.6035156,40.999353 95.6035156,40.1855469 C95.6035156,39.274084 95.2454463,38.5335315 94.5292969,37.9638672 C93.8131475,37.3942029 92.9586638,36.979168 91.9658203,36.71875 C90.728835,36.3932275 89.4064198,36.0839858 87.9985352,35.7910156 C86.5906505,35.4980454 85.2763733,35.1399761 84.0556641,34.7167969 C81.2398948,33.7239534 79.2216858,32.3893313 78.0009766,30.7128906 C76.7802673,29.03645 76.1699219,26.9368616 76.1699219,24.4140625 C76.1699219,21.0123528 77.6103372,18.2576603 80.4912109,16.1499023 C83.3720847,14.0421444 86.969054,12.9882812 91.2822266,12.9882812 C93.4469509,12.9882812 95.5994359,13.2080056 97.7397461,13.6474609 C99.8800563,14.0869163 101.796541,14.6809858 103.489258,15.4296875 L103.489258,23.7304688 L102.683594,23.7304688 C101.332676,22.574864 99.6847428,21.5983113 97.7397461,20.8007812 C95.7947494,20.0032512 93.7968853,19.6044922 91.7460938,19.6044922 C90.9485637,19.6044922 90.232425,19.6614578 89.5976562,19.7753906 C88.9628875,19.8893235 88.2955764,20.1090479 87.5957031,20.4345703 C87.0260388,20.6949883 86.5336935,21.0815404 86.1186523,21.5942383 C85.7036112,22.1069362 85.4960938,22.6806609 85.4960938,23.3154297 C85.4960938,24.2431687 85.8256803,24.9796522 86.4848633,25.5249023 C87.1440463,26.0701525 88.4176338,26.5624978 90.3056641,27.0019531 C91.5263733,27.2786472 92.7023055,27.5471992 93.8334961,27.8076172 C94.9646866,28.0680352 96.1731707,28.4261045 97.4589844,28.8818359 C99.9817834,29.7932988 101.857578,31.0180587 103.086426,32.5561523 C104.315273,34.094246 104.929688,36.1246619 104.929688,38.6474609 C104.929688,42.2607603 103.509617,45.1660046 100.669434,47.3632812 C97.8292501,49.5605579 93.9922117,50.6591797 89.1582031,50.6591797 Z M119.602539,50.5371094 C116.119449,50.5371094 113.584481,49.8209707 111.997559,48.3886719 C110.410637,46.956373 109.617188,44.6126465 109.617188,41.3574219 L109.617188,28.5400391 L106.345703,28.5400391 L106.345703,22.5830078 L109.617188,22.5830078 L109.617188,14.7460938 L118.162109,14.7460938 L118.162109,22.5830078 L126.389648,22.5830078 L126.389648,28.5400391 L118.162109,28.5400391 L118.162109,38.2568359 C118.162109,39.2171272 118.170247,40.055335 118.186523,40.7714844 C118.2028,41.4876338 118.333007,42.130531 118.577148,42.7001953 C118.805014,43.2698596 119.207842,43.7215153 119.785645,44.0551758 C120.363447,44.3888363 121.205724,44.5556641 122.3125,44.5556641 C122.768231,44.5556641 123.36637,44.4580088 124.106934,44.2626953 C124.847497,44.0673818 125.364256,43.8883472 125.657227,43.7255859 L126.389648,43.7255859 L126.389648,49.7558594 C125.461909,50.0000012 124.477219,50.1912428 123.435547,50.3295898 C122.393875,50.4679369 121.116219,50.5371094 119.602539,50.5371094 Z M156.199219,36.3037109 C156.199219,40.812197 154.966321,44.3644076 152.500488,46.9604492 C150.034656,49.5564908 146.547549,50.8544922 142.039062,50.8544922 C137.563129,50.8544922 134.08416,49.5564908 131.602051,46.9604492 C129.119942,44.3644076 127.878906,40.812197 127.878906,36.3037109 C127.878906,31.7463965 129.119942,28.17791 131.602051,25.5981445 C134.08416,23.018379 137.563129,21.7285156 142.039062,21.7285156 C146.531272,21.7285156 150.014311,23.026517 152.488281,25.6225586 C154.962252,28.2186002 156.199219,31.7789487 156.199219,36.3037109 Z M147.43457,36.3525391 C147.43457,34.7249268 147.300294,33.3699598 147.031738,32.2875977 C146.763182,31.2052355 146.392906,30.3385449 145.920898,29.6875 C145.416339,29.0039028 144.846683,28.5278334 144.211914,28.2592773 C143.577145,27.9907213 142.852869,27.8564453 142.039062,27.8564453 C141.274085,27.8564453 140.58236,27.9744454 139.963867,28.2104492 C139.345375,28.446453 138.775719,28.8981086 138.254883,29.5654297 C137.766599,30.2001985 137.375978,31.070958 137.083008,32.1777344 C136.790038,33.2845107 136.643555,34.6760984 136.643555,36.3525391 C136.643555,38.0289797 136.7819,39.3839467 137.058594,40.4174805 C137.335288,41.4510143 137.693357,42.2770151 138.132812,42.8955078 C138.588544,43.5302766 139.1582,43.9941392 139.841797,44.2871094 C140.525394,44.5800796 141.282222,44.7265625 142.112305,44.7265625 C142.795902,44.7265625 143.491696,44.5800796 144.199707,44.2871094 C144.907718,43.9941392 145.473305,43.5546904 145.896484,42.96875 C146.401044,42.2688767 146.783527,41.4266 147.043945,40.4418945 C147.304363,39.4571891 147.43457,38.0940842 147.43457,36.3525391 Z M174.192383,50.7324219 C171.930002,50.7324219 169.858896,50.447594 167.979004,49.8779297 C166.099112,49.3082654 164.467455,48.4293679 163.083984,47.2412109 C161.71679,46.053054 160.65072,44.5597421 159.885742,42.7612305 C159.120764,40.9627189 158.738281,38.8427856 158.738281,36.4013672 C158.738281,33.7809114 159.153316,31.551116 159.983398,29.7119141 C160.813481,27.8727122 161.936516,26.3590554 163.352539,25.1708984 C164.719733,24.0315698 166.326976,23.1892931 168.174316,22.644043 C170.021656,22.0987928 171.946279,21.8261719 173.948242,21.8261719 C175.461922,21.8261719 176.975578,22.0011376 178.489258,22.3510742 C180.002937,22.7010109 181.524732,23.2584597 183.054688,24.0234375 L183.054688,31.3476562 L181.956055,31.3476562 C181.614256,31.0221338 181.195152,30.6640645 180.69873,30.2734375 C180.202309,29.8828105 179.661136,29.5247412 179.075195,29.1992188 C178.456703,28.8574202 177.75684,28.5685233 176.975586,28.3325195 C176.194332,28.0965157 175.323573,27.9785156 174.363281,27.9785156 C172.182281,27.9785156 170.493658,28.739413 169.297363,30.2612305 C168.101068,31.783048 167.50293,33.8297397 167.50293,36.4013672 C167.50293,39.152032 168.141758,41.2027927 169.419434,42.5537109 C170.697109,43.9046292 172.39387,44.5800781 174.509766,44.5800781 C175.58399,44.5800781 176.527991,44.458009 177.341797,44.2138672 C178.155603,43.9697253 178.855466,43.6767595 179.441406,43.3349609 C180.011071,42.9931624 180.499347,42.639162 180.90625,42.2729492 C181.313153,41.9067365 181.663084,41.5771499 181.956055,41.2841797 L183.054688,41.2841797 L183.054688,48.6083984 C182.566404,48.819988 182.000817,49.0641262 181.35791,49.3408203 C180.715003,49.6175144 180.059899,49.8453767 179.392578,50.0244141 C178.562496,50.2522798 177.785323,50.4272455 177.061035,50.5493164 C176.336748,50.6713873 175.38054,50.7324219 174.192383,50.7324219 Z M214.548828,50 L204.392578,50 L196.970703,38.0615234 L195.652344,39.84375 L195.652344,50 L187.107422,50 L187.107422,12.0117188 L195.652344,12.0117188 L195.652344,33.3007812 L203.757812,22.5830078 L213.84082,22.5830078 L204.246094,34.3994141 L214.548828,50 Z M249.998047,50 L249.998047,36.3037109 C249.998047,34.9527927 249.973633,33.8134812 249.924805,32.8857422 C249.875976,31.9580032 249.729493,31.2011748 249.485352,30.6152344 C249.24121,30.0292939 248.862796,29.6020521 248.350098,29.3334961 C247.8374,29.0649401 247.117192,28.9306641 246.189453,28.9306641 C245.538408,28.9306641 244.895511,29.073078 244.260742,29.3579102 C243.625973,29.6427423 242.934249,30.0455703 242.185547,30.5664062 L242.185547,50 L233.591797,50 L233.591797,36.3037109 C233.591797,34.9690688 233.563314,33.8338263 233.506348,32.8979492 C233.449381,31.9620721 233.298829,31.2011748 233.054688,30.6152344 C232.810546,30.0292939 232.432131,29.6020521 231.919434,29.3334961 C231.406736,29.0649401 230.694666,28.9306641 229.783203,28.9306641 C229.08333,28.9306641 228.399743,29.0934229 227.732422,29.4189453 C227.065101,29.7444678 226.414066,30.1269509 225.779297,30.5664062 L225.779297,50 L217.234375,50 L217.234375,22.5830078 L225.779297,22.5830078 L225.779297,25.6103516 C227.179043,24.4221946 228.49739,23.4944695 229.734375,22.8271484 C230.97136,22.1598274 232.362948,21.8261719 233.90918,21.8261719 C235.58562,21.8261719 237.058587,22.2249309 238.328125,23.0224609 C239.597663,23.819991 240.566077,25.0081301 241.233398,26.5869141 C242.877287,25.0569585 244.427564,23.8810262 245.884277,23.059082 C247.34099,22.2371378 248.818026,21.8261719 250.31543,21.8261719 C251.584967,21.8261719 252.724279,22.0296204 253.733398,22.4365234 C254.742518,22.8434265 255.597002,23.453772 256.296875,24.2675781 C257.061853,25.1464888 257.635578,26.192214 258.018066,27.4047852 C258.400555,28.6173563 258.591797,30.2001855 258.591797,32.1533203 L258.591797,50 L249.998047,50 Z M291.233398,36.3037109 C291.233398,40.812197 290.000501,44.3644076 287.534668,46.9604492 C285.068835,49.5564908 281.581728,50.8544922 277.073242,50.8544922 C272.597308,50.8544922 269.118339,49.5564908 266.63623,46.9604492 C264.154122,44.3644076 262.913086,40.812197 262.913086,36.3037109 C262.913086,31.7463965 264.154122,28.17791 266.63623,25.5981445 C269.118339,23.018379 272.597308,21.7285156 277.073242,21.7285156 C281.565452,21.7285156 285.04849,23.026517 287.522461,25.6225586 C289.996432,28.2186002 291.233398,31.7789487 291.233398,36.3037109 Z M282.46875,36.3525391 C282.46875,34.7249268 282.334474,33.3699598 282.065918,32.2875977 C281.797362,31.2052355 281.427086,30.3385449 280.955078,29.6875 C280.450518,29.0039028 279.880863,28.5278334 279.246094,28.2592773 C278.611325,27.9907213 277.887048,27.8564453 277.073242,27.8564453 C276.308264,27.8564453 275.61654,27.9744454 274.998047,28.2104492 C274.379554,28.446453 273.809898,28.8981086 273.289062,29.5654297 C272.800779,30.2001985 272.410158,31.070958 272.117188,32.1777344 C271.824217,33.2845107 271.677734,34.6760984 271.677734,36.3525391 C271.677734,38.0289797 271.816079,39.3839467 272.092773,40.4174805 C272.369468,41.4510143 272.727537,42.2770151 273.166992,42.8955078 C273.622724,43.5302766 274.192379,43.9941392 274.875977,44.2871094 C275.559574,44.5800796 276.316402,44.7265625 277.146484,44.7265625 C277.830082,44.7265625 278.525875,44.5800796 279.233887,44.2871094 C279.941898,43.9941392 280.507485,43.5546904 280.930664,42.96875 C281.435224,42.2688767 281.817707,41.4266 282.078125,40.4418945 C282.338543,39.4571891 282.46875,38.0940842 282.46875,36.3525391 Z M322.092773,36.3037109 C322.092773,40.812197 320.859876,44.3644076 318.394043,46.9604492 C315.92821,49.5564908 312.441103,50.8544922 307.932617,50.8544922 C303.456683,50.8544922 299.977714,49.5564908 297.495605,46.9604492 C295.013497,44.3644076 293.772461,40.812197 293.772461,36.3037109 C293.772461,31.7463965 295.013497,28.17791 297.495605,25.5981445 C299.977714,23.018379 303.456683,21.7285156 307.932617,21.7285156 C312.424827,21.7285156 315.907865,23.026517 318.381836,25.6225586 C320.855807,28.2186002 322.092773,31.7789487 322.092773,36.3037109 Z M313.328125,36.3525391 C313.328125,34.7249268 313.193849,33.3699598 312.925293,32.2875977 C312.656737,31.2052355 312.286461,30.3385449 311.814453,29.6875 C311.309893,29.0039028 310.740238,28.5278334 310.105469,28.2592773 C309.4707,27.9907213 308.746423,27.8564453 307.932617,27.8564453 C307.167639,27.8564453 306.475915,27.9744454 305.857422,28.2104492 C305.238929,28.446453 304.669273,28.8981086 304.148438,29.5654297 C303.660154,30.2001985 303.269533,31.070958 302.976562,32.1777344 C302.683592,33.2845107 302.537109,34.6760984 302.537109,36.3525391 C302.537109,38.0289797 302.675454,39.3839467 302.952148,40.4174805 C303.228843,41.4510143 303.586912,42.2770151 304.026367,42.8955078 C304.482099,43.5302766 305.051754,43.9941392 305.735352,44.2871094 C306.418949,44.5800796 307.175777,44.7265625 308.005859,44.7265625 C308.689457,44.7265625 309.38525,44.5800796 310.093262,44.2871094 C310.801273,43.9941392 311.36686,43.5546904 311.790039,42.96875 C312.294599,42.2688767 312.677082,41.4266 312.9375,40.4418945 C313.197918,39.4571891 313.328125,38.0940842 313.328125,36.3525391 Z M351.560547,50 L343.015625,50 L343.015625,47.1435547 C342.462237,47.5992861 341.831547,48.0875625 341.123535,48.6083984 C340.415524,49.1292344 339.792971,49.5198555 339.255859,49.7802734 C338.572262,50.1057959 337.896813,50.3499341 337.229492,50.5126953 C336.562171,50.6754565 335.764653,50.7568359 334.836914,50.7568359 C331.711898,50.7568359 329.237965,49.4629036 327.415039,46.875 C325.592113,44.2870964 324.680664,40.8284722 324.680664,36.4990234 C324.680664,34.1064333 324.989906,32.0312588 325.608398,30.2734375 C326.226891,28.5156162 327.081375,26.9856836 328.171875,25.6835938 C329.164719,24.4954368 330.369134,23.5555048 331.785156,22.8637695 C333.201179,22.1720343 334.69856,21.8261719 336.277344,21.8261719 C337.709643,21.8261719 338.885575,21.9767238 339.805176,22.277832 C340.724777,22.5789403 341.794916,23.0468718 343.015625,23.6816406 L343.015625,12.0117188 L351.560547,12.0117188 L351.560547,50 Z M343.015625,42.4316406 L343.015625,28.9794922 C342.592446,28.7679026 342.039066,28.5929369 341.355469,28.4545898 C340.671872,28.3162428 340.08594,28.2470703 339.597656,28.2470703 C337.546865,28.2470703 336.004725,28.963209 334.971191,30.3955078 C333.937658,31.8278066 333.420898,33.8297397 333.420898,36.4013672 C333.420898,39.1032036 333.831864,41.0563091 334.653809,42.2607422 C335.475753,43.4651753 336.806306,44.0673828 338.645508,44.0673828 C339.394209,44.0673828 340.151038,43.9208999 340.916016,43.6279297 C341.680993,43.3349595 342.380856,42.9362004 343.015625,42.4316406 Z" id="Stockmood"></path>
            <path d="M29,60 C12.9837423,60 0,47.0162577 0,31 C0,14.9837423 12.9837423,2 29,2 C45.0162577,2 58,14.9837423 58,31 C58,47.0162577 45.0162577,60 29,60 Z M8,21.4615385 L8,34.3846154 L14.4042553,34.3846154 L14.4042553,21.4615385 L8,21.4615385 Z M26.2978723,21.4615385 L26.2978723,51 L32.7021277,51 L32.7021277,21.4615385 L26.2978723,21.4615385 Z M44.5957447,21.4615385 L44.5957447,34.3846154 L51,34.3846154 L51,21.4615385 L44.5957447,21.4615385 Z M17.1489362,15 L17.1489362,44.5384615 L23.5531915,44.5384615 L23.5531915,15 L17.1489362,15 Z M35.4468085,15 L35.4468085,44.5384615 L41.8510638,44.5384615 L41.8510638,15 L35.4468085,15 Z" id="Oval"></path>
        </g>
    </g>
</svg>